{
  "accessors": [
    {
      "bufferView": 3,
      "componentType": 5126,
      "count": 16,
      "max": [
        1.1578099727630615,
        4.136007785797119,
        1.5473140478134155
      ],
      "min": [
        -1.1578110456466675,
        3.2224550247192383,
        1.1182459592819214
      ],
      "type": "VEC3"
    },
    {
      "bufferView": 3,
      "byteOffset": 192,
      "componentType": 5126,
      "count": 16,
      "max": [
        0.7553921341896057,
        0.47045576572418213,
        0.9242914319038391
      ],
      "min": [
        -0.7341063022613525,
        -0.28964030742645264,
        0.6317369341850281
      ],
      "type": "VEC3"
    },
    {
      "bufferView": 2,
      "componentType": 5126,
      "count": 16,
      "max": [
        0.4648439884185791,
        0.9804689884185791
      ],
      "min": [
        0.03125,
        0.7539060115814209
      ],
      "type": "VEC2"
    },
    {
      "bufferView": 1,
      "componentType": 5125,
      "count": 36,
      "type": "SCALAR"
    },
    {
      "bufferView": 3,
      "byteOffset": 384,
      "componentType": 5126,
      "count": 982,
      "max": [
        1.8780549764633179,
        5.011096000671387,
        1.9190080165863037
      ],
      "min": [
        -1.8780590295791626,
        0.00044299999717622995,
        -3.212306022644043
      ],
      "type": "VEC3"
    },
    {
      "bufferView": 3,
      "byteOffset": 12168,
      "componentType": 5126,
      "count": 982,
      "max": [
        0.9998236894607544,
        0.9999984502792358,
        1.0
      ],
      "min": [
        -0.9998794794082642,
        -1.0,
        -0.9999069571495056
      ],
      "type": "VEC3"
    },
    {
      "bufferView": 2,
      "byteOffset": 128,
      "componentType": 5126,
      "count": 982,
      "max": [
        0.9872440099716187,
        -0.015564000234007835
      ],
      "min": [
        0.018921000882983208,
        -0.9898070096969604
      ],
      "type": "VEC2"
    },
    {
      "bufferView": 1,
      "byteOffset": 144,
      "componentType": 5125,
      "count": 4170,
      "type": "SCALAR"
    },
    {
      "bufferView": 3,
      "byteOffset": 23952,
      "componentType": 5126,
      "count": 12,
      "max": [
        0.6249639987945557,
        3.2224550247192383,
        1.6209789514541626
      ],
      "min": [
        -0.6249639987945557,
        2.5261659622192383,
        1.0643320083618164
      ],
      "type": "VEC3"
    },
    {
      "bufferView": 3,
      "byteOffset": 24096,
      "componentType": 5126,
      "count": 12,
      "max": [
        0.33242905139923096,
        -0.25811338424682617,
        0.9652274250984192
      ],
      "min": [
        -0.3840921223163605,
        -0.8213379383087158,
        0.5300282835960388
      ],
      "type": "VEC3"
    },
    {
      "bufferView": 2,
      "byteOffset": 7984,
      "componentType": 5126,
      "count": 12,
      "max": [
        0.4551999866962433,
        2.954468011856079
      ],
      "min": [
        0.019043000414967537,
        2.801146984100342
      ],
      "type": "VEC2"
    },
    {
      "bufferView": 1,
      "byteOffset": 16824,
      "componentType": 5125,
      "count": 42,
      "type": "SCALAR"
    },
    {
      "bufferView": 5,
      "componentType": 5126,
      "count": 36,
      "max": [
        100.0,
        1.0,
        0.010219773277640343,
        0.0,
        1.0,
        100.0,
        1.0,
        0.0,
        1.0,
        4.4847197955277807e-07,
        100.0,
        0.0,
        0.21071285009384155,
        2.21270751953125,
        0.0,
        1.0
      ],
      "min": [
        -0.9999998211860657,
        -1.0,
        -0.01021989993751049,
        0.0,
        -0.6925296783447266,
        -1.0,
        -2.205525504450634e-07,
        0.0,
        -1.0,
        -4.484570581553271e-07,
        -3.0040275305509567e-05,
        0.0,
        -2.329521417617798,
        -2.212724208831787,
        -3.564382553100586,
        1.0
      ],
      "type": "MAT4"
    },
    {
      "bufferView": 0,
      "componentType": 5123,
      "count": 16,
      "type": "VEC4"
    },
    {
      "bufferView": 4,
      "componentType": 5126,
      "count": 16,
      "max": [
        1.0,
        0.0,
        0.0,
        0.0
      ],
      "min": [
        1.0,
        0.0,
        0.0,
        0.0
      ],
      "type": "VEC4"
    },
    {
      "bufferView": 0,
      "byteOffset": 128,
      "componentType": 5123,
      "count": 982,
      "type": "VEC4"
    },
    {
      "bufferView": 4,
      "byteOffset": 256,
      "componentType": 5126,
      "count": 982,
      "max": [
        1.0,
        0.5,
        0.30000001192092896,
        0.0
      ],
      "min": [
        0.4000000059604645,
        0.0,
        0.0,
        0.0
      ],
      "type": "VEC4"
    },
    {
      "bufferView": 0,
      "byteOffset": 7984,
      "componentType": 5123,
      "count": 12,
      "type": "VEC4"
    },
    {
      "bufferView": 4,
      "byteOffset": 15968,
      "componentType": 5126,
      "count": 12,
      "max": [
        1.0,
        0.0,
        0.0,
        0.0
      ],
      "min": [
        1.0,
        0.0,
        0.0,
        0.0
      ],
      "type": "VEC4"
    }
  ],
  "asset": {
    "extras": {
      "author": "jsuliocesar012 (https://sketchfab.com/jsuliocesar012)",
      "license": "CC-BY-4.0 (http://creativecommons.org/licenses/by/4.0/)",
      "source": "https://sketchfab.com/3d-models/oshawott-155d8a2175ad4ca39b797b599041628a",
      "title": "Oshawott"
    },
    "generator": "Sketchfab-14.71.0",
    "version": "2.0"
  },
  "bufferViews": [
    {
      "buffer": 0,
      "byteLength": 8080,
      "byteStride": 8,
      "name": "shortBufferViews",
      "target": 34962
    },
    {
      "buffer": 0,
      "byteLength": 16992,
      "byteOffset": 8080,
      "name": "floatBufferViews",
      "target": 34963
    },
    {
      "buffer": 0,
      "byteLength": 8080,
      "byteOffset": 25072,
      "byteStride": 8,
      "name": "floatBufferViews",
      "target": 34962
    },
    {
      "buffer": 0,
      "byteLength": 24240,
      "byteOffset": 33152,
      "byteStride": 12,
      "name": "floatBufferViews",
      "target": 34962
    },
    {
      "buffer": 0,
      "byteLength": 16160,
      "byteOffset": 57392,
      "byteStride": 16,
      "name": "floatBufferViews",
      "target": 34962
    },
    {
      "buffer": 0,
      "byteLength": 2304,
      "byteOffset": 73552,
      "name": "floatBufferViews"
    }
  ],
  "buffers": [
    {
      "byteLength": 75856,
      "uri": "scene.bin"
    }
  ],
  "images": [
    {
      "uri": "textures/MijumaruEyeNl.png_baseColor.png"
    },
    {
      "uri": "textures/MijumaruBodyNl.png_baseColor.png"
    },
    {
      "uri": "textures/MijumaruMouthNl.png_baseColor.png"
    }
  ],
  "materials": [
    {
      "doubleSided": true,
      "name": "MijumaruEyeNl.png",
      "pbrMetallicRoughness": {
        "baseColorTexture": {
          "index": 0
        },
        "metallicFactor": 0.0,
        "roughnessFactor": 0.8090004171446686
      }
    },
    {
      "doubleSided": true,
      "name": "MijumaruBodyNl.png",
      "pbrMetallicRoughness": {
        "baseColorTexture": {
          "index": 1
        },
        "metallicFactor": 0.0,
        "roughnessFactor": 0.7938644829488903
      }
    },
    {
      "doubleSided": true,
      "name": "MijumaruMouthNl.png",
      "pbrMetallicRoughness": {
        "baseColorTexture": {
          "index": 2
        },
        "metallicFactor": 0.0,
        "roughnessFactor": 0.8021597921984456
      }
    }
  ],
  "meshes": [
    {
      "name": "dmkvyhdxi5w3bw7p8f7nizq4gcaemhfjo0smd_MijumaruEyeNl.png_0",
      "primitives": [
        {
          "attributes": {
            "JOINTS_0": 13,
            "NORMAL": 1,
            "POSITION": 0,
            "TEXCOORD_0": 2,
            "WEIGHTS_0": 14
          },
          "indices": 3,
          "material": 0,
          "mode": 4
        }
      ]
    },
    {
      "name": "dmkvyhdxi5w3bw7p8f7nizq4gcaemhfjo0smd_MijumaruBodyNl.png_0",
      "primitives": [
        {
          "attributes": {
            "JOINTS_0": 15,
            "NORMAL": 5,
            "POSITION": 4,
            "TEXCOORD_0": 6,
            "WEIGHTS_0": 16
          },
          "indices": 7,
          "material": 1,
          "mode": 4
        }
      ]
    },
    {
      "name": "dmkvyhdxi5w3bw7p8f7nizq4gcaemhfjo0smd_MijumaruMouthNl.png_0",
      "primitives": [
        {
          "attributes": {
            "JOINTS_0": 17,
            "NORMAL": 9,
            "POSITION": 8,
            "TEXCOORD_0": 10,
            "WEIGHTS_0": 18
          },
          "indices": 11,
          "material": 2,
          "mode": 4
        }
      ]
    }
  ],
  "nodes": [
    {
      "children": [
        1
      ],
      "matrix": [
        1.0,
        0.0,
        0.0,
        0.0,
        0.0,
        2.220446049250313e-16,
        -1.0,
        0.0,
        0.0,
        1.0,
        2.220446049250313e-16,
        0.0,
        0.0,
        0.0,
        0.0,
        1.0
      ],
      "name": "Sketchfab_model"
    },
    {
      "children": [
        2
      ],
      "matrix": [
        0.009999999776482582,
        0.0,
        0.0,
        0.0,
        0.0,
        0.0,
        0.009999999776482582,
        0.0,
        0.0,
        -0.009999999776482582,
        0.0,
        0.0,
        0.0,
        0.0,
        0.0,
        1.0
      ],
      "name": "99d98bb078924bd09c05e9fc67af9c5a.fbx"
    },
    {
      "children": [
        3
      ],
      "name": "RootNode"
    },
    {
      "children": [
        4
      ],
      "matrix": [
        100.0,
        0.0,
        0.0,
        0.0,
        0.0,
        -4.371139006309477e-06,
        -99.9999999999999,
        0.0,
        0.0,
        99.9999999999999,
        -4.371139006309477e-06,
        0.0,
        0.0,
        0.0,
        0.0,
        1.0
      ],
      "name": "dmkvyhdxi5w3bw7p8f7nizq4gcaemhfjo0smd_skeleton"
    },
    {
      "children": [
        5,
        7,
        8,
        9,
        6
      ],
      "name": "Object_4"
    },
    {
      "children": [
        10,
        43
      ],
      "name": "_rootJoint"
    },
    {
      "matrix": [
        100.0,
        0.0,
        0.0,
        0.0,
        0.0,
        1.1714553645826799e-13,
        -100.00000000001329,
        0.0,
        0.0,
        100.00000000001329,
        1.1714553645826799e-13,
        0.0,
        0.0,
        0.0,
        0.0,
        1.0
      ],
      "name": "Object_6"
    },
    {
      "mesh": 0,
      "name": "Object_7",
      "skin": 0
    },
    {
      "mesh": 1,
      "name": "Object_8",
      "skin": 0
    },
    {
      "mesh": 2,
      "name": "Object_9",
      "skin": 0
    },
    {
      "children": [
        11
      ],
      "name": "Mijumaru_01",
      "rotation": [
        0.7071066498756409,
        0.0,
        0.0,
        0.70710688829422
      ]
    },
    {
      "children": [
        12
      ],
      "name": "Origin_02",
      "rotation": [
        2.6469779601696886e-23,
        0.0,
        0.0,
        1.0
      ]
    },
    {
      "children": [
        13,
        18,
        22,
        26,
        40
      ],
      "name": "Waist_03",
      "rotation": [
        -1.1098624952410319e-07,
        1.109862637349579e-07,
        0.7071068286895752,
        0.7071068286895752
      ],
      "translation": [
        0.0,
        0.7201839685440063,
        0.011480999179184437
      ]
    },
    {
      "children": [
        14,
        16
      ],
      "name": "Feeler1_04",
      "rotation": [
        -3.1554436208840472e-30,
        5.293955920339377e-23,
        4.230591023294948e-25,
        1.0
      ],
      "translation": [
        0.09395064413547516,
        -3.5390257835388184e-08,
        1.2040269374847412
      ]
    },
    {
      "children": [
        15
      ],
      "name": "Feeler2_05",
      "rotation": [
        -6.310887241768095e-30,
        5.293955920339377e-23,
        -2.8856632492750028e-24,
        1.0
      ],
      "translation": [
        0.4397830069065094,
        -1.6205012798309326e-07,
        1.4407942217076197e-07
      ]
    },
    {
      "name": "Feeler2_end_026",
      "rotation": [
        0.0,
        -0.0,
        -2.8856632492750028e-24,
        1.0
      ],
      "translation": [
        0.0,
        0.0168907567858696,
        -2.220446049250313e-16
      ]
    },
    {
      "children": [
        17
      ],
      "name": "Feeler3_06",
      "rotation": [
        -0.59597247838974,
        0.38083523511886597,
        -0.38123270869255066,
        0.5953511595726013
      ],
      "scale": [
        0.9999999403953552,
        0.9999998807907104,
        0.9999998807907104
      ],
      "translation": [
        0.470410019159317,
        -1.7508864402770996e-07,
        1.650687408982776e-07
      ]
    },
    {
      "name": "Feeler3_end_027",
      "rotation": [
        2.710505431213761e-20,
        -6.282604835440716e-17,
        1.6263032587282567e-19,
        1.0
      ],
      "translation": [
        0.0,
        0.01689077354967594,
        0.0
      ]
    },
    {
      "children": [
        19
      ],
      "name": "LThigh_07",
      "rotation": [
        2.758576426587457e-37,
        -6.310887241768095e-30,
        1.0,
        -4.371138828673793e-08
      ],
      "translation": [
        0.239956796169281,
        -0.5000000596046448,
        -0.000669925007969141
      ]
    },
    {
      "children": [
        20
      ],
      "name": "LFoot_08",
      "rotation": [
        -1.0670164158455615e-24,
        -0.3920905292034149,
        -2.5034128090411093e-24,
        0.9199267625808716
      ],
      "scale": [
        0.9999999403953552,
        1.0,
        0.9999999403953552
      ],
      "translation": [
        0.6446139216423035,
        1.7881393432617188e-07,
        -2.028583594437805e-07
      ]
    },
    {
      "children": [
        21
      ],
      "name": "LToe_09",
      "rotation": [
        -1.010929391560479e-24,
        -0.36467787623405457,
        -2.4186613404734636e-24,
        0.9311337471008301
      ],
      "scale": [
        1.0000001192092896,
        1.0,
        1.0000001192092896
      ],
      "translation": [
        0.5023330450057983,
        0.0,
        0.11815288662910461
      ]
    },
    {
      "name": "LToe_end_028",
      "rotation": [
        -6.244949514144291e-24,
        0.0,
        -6.423852123395743e-26,
        1.0
      ],
      "translation": [
        0.0,
        0.016890764236450195,
        6.938893903907228e-18
      ]
    },
    {
      "children": [
        23
      ],
      "name": "RThigh_010",
      "rotation": [
        2.758576426587457e-37,
        -6.310887241768095e-30,
        1.0,
        -4.371138828673793e-08
      ],
      "translation": [
        0.23996716737747192,
        0.4972798824310303,
        -0.0006699249497614801
      ]
    },
    {
      "children": [
        24
      ],
      "name": "RFoot_011",
      "rotation": [
        -5.0822699084748404e-24,
        -0.3920910060405731,
        -1.1924022279702773e-23,
        0.9199264645576477
      ],
      "translation": [
        0.6446249485015869,
        1.7881393432617188e-07,
        -2.0285879998027667e-07
      ]
    },
    {
      "children": [
        25
      ],
      "name": "RToe_012",
      "rotation": [
        -2.0734341146738552e-24,
        -0.36470767855644226,
        3.737274686847499e-24,
        0.9311220645904541
      ],
      "scale": [
        1.0000001192092896,
        1.0,
        1.0000001192092896
      ],
      "translation": [
        0.5023251175880432,
        8.940696716308594e-08,
        0.11816088855266571
      ]
    },
    {
      "name": "RToe_end_029",
      "rotation": [
        -9.756483369923292e-24,
        -3.469446951953614e-18,
        -2.1036711531709766e-25,
        1.0
      ],
      "translation": [
        0.0,
        0.016890764236450195,
        0.0
      ]
    },
    {
      "children": [
        27,
        31,
        35
      ],
      "name": "Spine_013",
      "rotation": [
        -3.1554436208840472e-30,
        5.293955920339377e-23,
        4.230591023294948e-25,
        1.0
      ],
      "translation": [
        0.8357908725738525,
        -3.110617399215698e-07,
        2.626090918056434e-07
      ]
    },
    {
      "children": [
        28
      ],
      "name": "LShoulder_014",
      "rotation": [
        0.003275482915341854,
        0.004083174746483564,
        -0.6257112622261047,
        0.7800373435020447
      ],
      "translation": [
        0.34216687083244324,
        -0.19000712037086487,
        0.021184103563427925
      ]
    },
    {
      "children": [
        29
      ],
      "name": "LArm_015",
      "rotation": [
        0.001250106026418507,
        -0.005084208678454161,
        -0.23879551887512207,
        0.9710558652877808
      ],
      "translation": [
        0.7129419445991516,
        -2.643095058374456e-07,
        2.3515895009040833e-07
      ]
    },
    {
      "children": [
        30
      ],
      "name": "LForeArm_016",
      "rotation": [
        1.995430807255616e-07,
        6.286175562308927e-07,
        0.1314026266336441,
        0.9913291931152344
      ],
      "translation": [
        0.5566057562828064,
        8.995211260298674e-07,
        -1.0864364412555005e-06
      ]
    },
    {
      "name": "LForeArm_end_030",
      "rotation": [
        0.0,
        -0.0,
        -2.580996371879555e-22,
        1.0
      ],
      "translation": [
        2.220446049250313e-16,
        0.016890764236450195,
        0.0
      ]
    },
    {
      "children": [
        32
      ],
      "name": "Neck_017",
      "rotation": [
        -6.310887241768095e-30,
        5.293955920339377e-23,
        -2.8856632492750028e-24,
        1.0
      ],
      "translation": [
        0.6464508771896362,
        -2.4028122425079346e-07,
        2.0272045730962418e-07
      ]
    },
    {
      "children": [
        33
      ],
      "name": "Head_018",
      "rotation": [
        9.220965076621275e-27,
        0.002541002817451954,
        -3.628856799477544e-24,
        0.9999967813491821
      ],
      "scale": [
        0.9999999403953552,
        1.0,
        0.9999999403953552
      ],
      "translation": [
        0.12718389928340912,
        -4.6566128730773926e-08,
        3.935633685614448e-08
      ]
    },
    {
      "children": [
        34
      ],
      "name": "Nose_019",
      "rotation": [
        0.7053182125091553,
        3.083043864648971e-08,
        0.7088908553123474,
        -3.0986605281668744e-08
      ],
      "translation": [
        1.2265442609786987,
        -4.5821064986739657e-07,
        1.6317532062530518
      ]
    },
    {
      "name": "Nose_end_031",
      "rotation": [
        1.5759233653503007e-23,
        -1.6940658945086007e-21,
        -2.5849394142282115e-26,
        1.0
      ],
      "translation": [
        -2.220446049250313e-16,
        0.0168907567858696,
        0.0
      ]
    },
    {
      "children": [
        36
      ],
      "name": "RShoulder_020",
      "rotation": [
        -0.0032756563741713762,
        0.004082967527210712,
        0.6257506608963013,
        0.7800055742263794
      ],
      "scale": [
        1.0,
        0.9999999403953552,
        1.0
      ],
      "translation": [
        0.3422490060329437,
        0.1900218427181244,
        0.021184103563427925
      ]
    },
    {
      "children": [
        37
      ],
      "name": "RArm_021",
      "rotation": [
        -0.0012498771538957953,
        -0.005083004012703896,
        0.23873870074748993,
        0.9710697531700134
      ],
      "scale": [
        1.0,
        1.0000001192092896,
        0.9999999403953552
      ],
      "translation": [
        0.7128769159317017,
        7.261985501827439e-07,
        -5.573965609073639e-07
      ]
    },
    {
      "children": [
        38
      ],
      "name": "RForeArm_022",
      "rotation": [
        8.585331556787423e-09,
        1.1165946744995381e-07,
        -0.13139547407627106,
        0.9913300275802612
      ],
      "scale": [
        1.0,
        0.9999998807907104,
        1.0
      ],
      "translation": [
        0.5566379427909851,
        -4.1193916899828764e-07,
        1.0004271189245628e-08
      ]
    },
    {
      "children": [
        39
      ],
      "name": "Item00_023",
      "rotation": [
        -1.2575685559568228e-07,
        -7.25011159642035e-15,
        1.0,
        -4.371138828673793e-08
      ],
      "translation": [
        -1.4233148097991943,
        1.9077926874160767,
        -0.02520141378045082
      ]
    },
    {
      "name": "Item00_end_032",
      "rotation": [
        -6.617444900424222e-24,
        2.6469779601696886e-23,
        2.485882465903971e-23,
        1.0
      ],
      "translation": [
        0.0,
        0.0168907567858696,
        0.0
      ]
    },
    {
      "children": [
        41
      ],
      "name": "Tail1_024",
      "rotation": [
        4.542772274129169e-24,
        0.7071066498756409,
        -4.542770696407359e-24,
        0.70710688829422
      ],
      "translation": [
        -0.01794467680156231,
        7.450580596923828e-09,
        -1.0122828483581543
      ]
    },
    {
      "children": [
        42
      ],
      "name": "Tail2_00",
      "rotation": [
        -3.115732165699995e-24,
        -9.272582701669307e-10,
        3.333450715235893e-23,
        1.0
      ],
      "translation": [
        1.0856107473373413,
        -6.617444900424222e-24,
        3.885315322804672e-07
      ]
    },
    {
      "name": "Tail2_end_033",
      "rotation": [
        3.545051766780937e-24,
        0.0,
        5.0686010789118044e-23,
        1.0
      ],
      "translation": [
        4.440892098500626e-16,
        0.0168907567858696,
        0.0
      ]
    },
    {
      "children": [
        44
      ],
      "name": "Oshawott_025",
      "rotation": [
        -6.617444900424222e-24,
        -0.0,
        0.0,
        1.0
      ]
    },
    {
      "name": "Oshawott_end_034",
      "rotation": [
        -3.308722450212111e-24,
        -0.0,
        0.0,
        1.0
      ],
      "translation": [
        0.0,
        0.0168907567858696,
        -1.0339757656912846e-25
      ]
    }
  ],
  "samplers": [
    {
      "magFilter": 9729,
      "minFilter": 9987,
      "wrapS": 10497,
      "wrapT": 10497
    }
  ],
  "scene": 0,
  "scenes": [
    {
      "name": "Sketchfab_Scene",
      "nodes": [
        0
      ]
    }
  ],
  "skins": [
    {
      "inverseBindMatrices": 12,
      "joints": [
        5,
        10,
        11,
        12,
        13,
        14,
        15,
        16,
        17,
        18,
        19,
        20,
        21,
        22,
        23,
        24,
        25,
        26,
        27,
        28,
        29,
        30,
        31,
        32,
        33,
        34,
        35,
        36,
        37,
        38,
        39,
        40,
        41,
        42,
        43,
        44
      ],
      "skeleton": 5
    }
  ],
  "textures": [
    {
      "sampler": 0,
      "source": 0
    },
    {
      "sampler": 0,
      "source": 1
    },
    {
      "sampler": 0,
      "source": 2
    }
  ]
}
