{
  "accessors": [
    {
      "bufferView": 3,
      "componentType": 5126,
      "count": 2103,
      "max": [
        39.94649887084961,
        11.018502235412598,
        30.17919921875
      ],
      "min": [
        -39.946495056152344,
        -22.228477478027344,
        -0.1285206824541092
      ],
      "type": "VEC3"
    },
    {
      "bufferView": 3,
      "byteOffset": 25236,
      "componentType": 5126,
      "count": 2103,
      "max": [
        1.0,
        1.0,
        1.0
      ],
      "min": [
        -1.0,
        -1.0,
        -1.0
      ],
      "type": "VEC3"
    },
    {
      "bufferView": 2,
      "componentType": 5126,
      "count": 2103,
      "max": [
        0.9942150115966797,
        0.9921879768371582
      ],
      "min": [
        0.005784987937659025,
        0.007811963092535734
      ],
      "type": "VEC2"
    },
    {
      "bufferView": 1,
      "componentType": 5125,
      "count": 9192,
      "type": "SCALAR"
    },
    {
      "bufferView": 3,
      "byteOffset": 50472,
      "componentType": 5126,
      "count": 60,
      "max": [
        10.052800178527832,
        -12.737000465393066,
        19.973203659057617
      ],
      "min": [
        -10.052800178527832,
        -14.134698867797852,
        3.9062395095825195
      ],
      "type": "VEC3"
    },
    {
      "bufferView": 3,
      "byteOffset": 51192,
      "componentType": 5126,
      "count": 60,
      "max": [
        0.35109376907348633,
        -0.7656705379486084,
        -0.1124328225851059
      ],
      "min": [
        -0.35109376907348633,
        -0.9932808876037598,
        -0.5847548246383667
      ],
      "type": "VEC3"
    },
    {
      "bufferView": 2,
      "byteOffset": 16824,
      "componentType": 5126,
      "count": 60,
      "max": [
        0.45691800117492676,
        2.9938700199127197
      ],
      "min": [
        0.04287397116422653,
        2.755510091781616
      ],
      "type": "VEC2"
    },
    {
      "bufferView": 1,
      "byteOffset": 36768,
      "componentType": 5125,
      "count": 216,
      "type": "SCALAR"
    },
    {
      "bufferView": 3,
      "byteOffset": 51912,
      "componentType": 5126,
      "count": 90,
      "max": [
        11.973999977111816,
        -12.635397911071777,
        22.672304153442383
      ],
      "min": [
        -11.973999977111816,
        -14.12179946899414,
        6.012209415435791
      ],
      "type": "VEC3"
    },
    {
      "bufferView": 3,
      "byteOffset": 52992,
      "componentType": 5126,
      "count": 90,
      "max": [
        0.6449021697044373,
        -0.7642627954483032,
        0.14093945920467377
      ],
      "min": [
        -0.6449021697044373,
        -0.9916638135910034,
        -0.3231373429298401
      ],
      "type": "VEC3"
    },
    {
      "bufferView": 2,
      "byteOffset": 17304,
      "componentType": 5126,
      "count": 90,
      "max": [
        0.4790689945220947,
        1.992609977722168
      ],
      "min": [
        0.020930999889969826,
        1.7566399574279785
      ],
      "type": "VEC2"
    },
    {
      "bufferView": 1,
      "byteOffset": 37632,
      "componentType": 5125,
      "count": 288,
      "type": "SCALAR"
    },
    {
      "bufferView": 5,
      "componentType": 5126,
      "count": 35,
      "max": [
        1.0,
        1.0,
        7.684801857976709e-06,
        0.0,
        1.0,
        1.0,
        0.0,
        0.0,
        1.0,
        1.0,
        1.0,
        0.0,
        0.0,
        21.744709014892578,
        26.404489517211914,
        1.0
      ],
      "min": [
        -1.0,
        -1.0000003576278687,
        -1.2061727484857787e-12,
        0.0,
        -1.0,
        -3.842401383735705e-06,
        -1.0,
        0.0,
        -3.8424000194936525e-06,
        -1.0,
        -1.0000001192092896,
        0.0,
        -18.50980567932129,
        -21.744672775268555,
        -3.490879774093628,
        1.0
      ],
      "type": "MAT4"
    },
    {
      "bufferView": 0,
      "componentType": 5123,
      "count": 2103,
      "type": "VEC4"
    },
    {
      "bufferView": 4,
      "componentType": 5126,
      "count": 2103,
      "max": [
        1.0,
        0.49000000953674316,
        0.10999999940395355,
        0.0
      ],
      "min": [
        0.5099999904632568,
        0.0,
        0.0,
        0.0
      ],
      "type": "VEC4"
    },
    {
      "bufferView": 0,
      "byteOffset": 16824,
      "componentType": 5123,
      "count": 60,
      "type": "VEC4"
    },
    {
      "bufferView": 4,
      "byteOffset": 33648,
      "componentType": 5126,
      "count": 60,
      "max": [
        0.800000011920929,
        0.4399999976158142,
        0.0,
        0.0
      ],
      "min": [
        0.5600000023841858,
        0.20000000298023224,
        0.0,
        0.0
      ],
      "type": "VEC4"
    },
    {
      "bufferView": 0,
      "byteOffset": 17304,
      "componentType": 5123,
      "count": 90,
      "type": "VEC4"
    },
    {
      "bufferView": 4,
      "byteOffset": 34608,
      "componentType": 5126,
      "count": 90,
      "max": [
        0.800000011920929,
        0.4399999976158142,
        0.0,
        0.0
      ],
      "min": [
        0.5600000023841858,
        0.20000000298023224,
        0.0,
        0.0
      ],
      "type": "VEC4"
    }
  ],
  "asset": {
    "extras": {
      "author": "nguyenlouis32 (https://sketchfab.com/nguyenlouis32)",
      "license": "CC-BY-4.0 (http://creativecommons.org/licenses/by/4.0/)",
      "source": "https://sketchfab.com/3d-models/combee-28f3a547e41e4813992fb5cd54f827cd",
      "title": "Combee"
    },
    "generator": "Sketchfab-13.42.0",
    "version": "2.0"
  },
  "bufferViews": [
    {
      "buffer": 0,
      "byteLength": 18024,
      "byteStride": 8,
      "name": "shortBufferViews",
      "target": 34962
    },
    {
      "buffer": 0,
      "byteLength": 38784,
      "byteOffset": 18024,
      "name": "floatBufferViews",
      "target": 34963
    },
    {
      "buffer": 0,
      "byteLength": 18024,
      "byteOffset": 56808,
      "byteStride": 8,
      "name": "floatBufferViews",
      "target": 34962
    },
    {
      "buffer": 0,
      "byteLength": 54072,
      "byteOffset": 74832,
      "byteStride": 12,
      "name": "floatBufferViews",
      "target": 34962
    },
    {
      "buffer": 0,
      "byteLength": 36048,
      "byteOffset": 128904,
      "byteStride": 16,
      "name": "floatBufferViews",
      "target": 34962
    },
    {
      "buffer": 0,
      "byteLength": 2240,
      "byteOffset": 164952,
      "name": "floatBufferViews"
    }
  ],
  "buffers": [
    {
      "byteLength": 167192,
      "uri": "scene.bin"
    }
  ],
  "images": [
    {
      "uri": "textures/assets_textures_pm0415_00_Body1-material_baseColor.png"
    },
    {
      "uri": "textures/assets_textures_pm0415_00_Mouth1-material_baseColor.png"
    },
    {
      "uri": "textures/assets_textures_pm0415_00_Eye1-material_baseColor.png"
    }
  ],
  "materials": [
    {
      "doubleSided": true,
      "name": "assets_textures_pm0415_00_Body1-material",
      "pbrMetallicRoughness": {
        "baseColorTexture": {
          "index": 0
        },
        "metallicFactor": 0.0,
        "roughnessFactor": 0.9577051494623774
      }
    },
    {
      "doubleSided": true,
      "name": "assets_textures_pm0415_00_Mouth1-material",
      "pbrMetallicRoughness": {
        "baseColorTexture": {
          "index": 1
        },
        "metallicFactor": 0.0,
        "roughnessFactor": 0.9577051494623774
      }
    },
    {
      "doubleSided": true,
      "name": "assets_textures_pm0415_00_Eye1-material",
      "pbrMetallicRoughness": {
        "baseColorTexture": {
          "index": 2
        },
        "metallicFactor": 0.0,
        "roughnessFactor": 0.9577051494623774
      }
    }
  ],
  "meshes": [
    {
      "name": "0000_pm0415_00_assets_textures_pm0415_00_Body1-material_0",
      "primitives": [
        {
          "attributes": {
            "JOINTS_0": 13,
            "NORMAL": 1,
            "POSITION": 0,
            "TEXCOORD_0": 2,
            "WEIGHTS_0": 14
          },
          "indices": 3,
          "material": 0,
          "mode": 4
        }
      ]
    },
    {
      "name": "0001_pm0415_00_assets_textures_pm0415_00_Mouth1-material_0",
      "primitives": [
        {
          "attributes": {
            "JOINTS_0": 15,
            "NORMAL": 5,
            "POSITION": 4,
            "TEXCOORD_0": 6,
            "WEIGHTS_0": 16
          },
          "indices": 7,
          "material": 1,
          "mode": 4
        }
      ]
    },
    {
      "name": "0002_pm0415_00_assets_textures_pm0415_00_Eye1-material_0",
      "primitives": [
        {
          "attributes": {
            "JOINTS_0": 17,
            "NORMAL": 9,
            "POSITION": 8,
            "TEXCOORD_0": 10,
            "WEIGHTS_0": 18
          },
          "indices": 11,
          "material": 2,
          "mode": 4
        }
      ]
    }
  ],
  "nodes": [
    {
      "children": [
        1
      ],
      "matrix": [
        1.0,
        -4.8033446892643715e-32,
        1.6081226229577292e-16,
        0.0,
        1.232595164407831e-32,
        -1.0,
        -4.440892098500626e-16,
        0.0,
        1.6081226229577292e-16,
        4.440892098500626e-16,
        -1.0,
        0.0,
        0.0,
        0.0,
        0.0,
        1.0
      ],
      "name": "Sketchfab_model"
    },
    {
      "children": [
        2
      ],
      "matrix": [
        0.009999999776482582,
        0.0,
        0.0,
        0.0,
        0.0,
        0.0,
        0.009999999776482582,
        0.0,
        0.0,
        -0.009999999776482582,
        0.0,
        0.0,
        0.0,
        0.0,
        0.0,
        1.0
      ],
      "name": "pm0415_00.fbx"
    },
    {
      "children": [
        3
      ],
      "name": "RootNode"
    },
    {
      "children": [
        4,
        6,
        8,
        10,
        5,
        7,
        9
      ],
      "name": "Object_3"
    },
    {
      "children": [
        11,
        12,
        13,
        14
      ],
      "name": "_rootJoint"
    },
    {
      "matrix": [
        1.0,
        4.023652839813813e-30,
        -8.077935669463161e-28,
        0.0,
        -4.023652839813813e-30,
        1.0,
        0.0,
        0.0,
        8.077935669463161e-28,
        3.2502808796268743e-57,
        1.0,
        0.0,
        0.0,
        0.0,
        -3.552713678800501e-15,
        1.0
      ],
      "name": "Object_5"
    },
    {
      "mesh": 0,
      "name": "Object_6",
      "skin": 0
    },
    {
      "matrix": [
        1.0,
        -3.84164622994916e-30,
        0.0,
        0.0,
        3.84164622994916e-30,
        1.0,
        0.0,
        0.0,
        0.0,
        0.0,
        1.0,
        0.0,
        0.0,
        0.0,
        0.0,
        1.0
      ],
      "name": "Object_7"
    },
    {
      "mesh": 1,
      "name": "Object_8",
      "skin": 0
    },
    {
      "matrix": [
        1.0,
        -3.84164622994916e-30,
        0.0,
        0.0,
        3.84164622994916e-30,
        1.0,
        0.0,
        0.0,
        0.0,
        0.0,
        1.0,
        0.0,
        0.0,
        0.0,
        0.0,
        1.0
      ],
      "name": "Object_9"
    },
    {
      "mesh": 2,
      "name": "Object_10",
      "skin": 0
    },
    {
      "name": "mesh0_00",
      "rotation": [
        0.7071067690849304,
        0.0,
        0.0,
        0.7071068286895752
      ]
    },
    {
      "name": "mesh1_03",
      "rotation": [
        0.7071067690849304,
        0.0,
        0.0,
        0.7071068286895752
      ]
    },
    {
      "name": "mesh2_02",
      "rotation": [
        0.7071067690849304,
        0.0,
        0.0,
        0.7071068286895752
      ]
    },
    {
      "children": [
        15,
        42,
        44
      ],
      "name": "pm0415_00_mitsuhoney_033",
      "rotation": [
        0.7071067690849304,
        0.0,
        0.0,
        0.7071068286895752
      ]
    },
    {
      "children": [
        16
      ],
      "name": "Origin_029",
      "rotation": [
        -6.617444900424222e-24,
        -0.0,
        0.0,
        1.0
      ]
    },
    {
      "children": [
        17,
        18,
        24,
        30,
        32,
        34,
        36,
        38,
        40
      ],
      "name": "Waist_028",
      "rotation": [
        2.6620998557429236e-21,
        2.6527514627410456e-21,
        0.7071081399917603,
        0.7071054577827454
      ],
      "translation": [
        0.0,
        15.813599586486816,
        3.490880012512207
      ]
    },
    {
      "name": "EndWaist_04",
      "rotation": [
        3.766978893979354e-21,
        9.925438443159908e-23,
        -1.9350500224391e-06,
        1.0
      ],
      "translation": [
        10.683199882507324,
        -1.786034886208654e-06,
        -1.4531445913235075e-07
      ]
    },
    {
      "children": [
        19,
        20
      ],
      "name": "HeadA_09",
      "rotation": [
        -1.3682871440323652e-06,
        -0.7071068286895752,
        -1.3682871440323652e-06,
        0.7071068286895752
      ],
      "translation": [
        5.247908592224121,
        -7.316309928894043,
        5.439420223236084
      ]
    },
    {
      "name": "EndHeadA_01",
      "rotation": [
        1.3850922186975367e-08,
        1.4210854715202004e-14,
        -8.390776815763237e-14,
        1.0
      ],
      "scale": [
        1.0,
        0.9999998807907104,
        1.0
      ],
      "translation": [
        6.869729518890381,
        4.76837158203125e-07,
        2.1353919237299124e-06
      ]
    },
    {
      "children": [
        21
      ],
      "name": "LFeelerA1_08",
      "rotation": [
        1.3850922186975367e-08,
        1.4210854715202004e-14,
        -8.390776815763237e-14,
        1.0
      ],
      "scale": [
        1.0,
        0.9999998807907104,
        1.0
      ],
      "translation": [
        3.4238603115081787,
        2.0503997802734375e-05,
        -5.342949867248535
      ]
    },
    {
      "children": [
        22
      ],
      "name": "LFeelerA2_07",
      "rotation": [
        1.2802046533977318e-08,
        6.954550713089702e-09,
        -8.097952782512921e-14,
        1.0
      ],
      "scale": [
        1.0,
        0.9999996423721313,
        1.0
      ],
      "translation": [
        3.006000280380249,
        -1.035229274748417e-06,
        -2.0488816971919732e-06
      ]
    },
    {
      "children": [
        23
      ],
      "name": "LFeelerA3_06",
      "rotation": [
        1.175316821644401e-08,
        -9.920313459588215e-10,
        -8.141430644882305e-14,
        1.0
      ],
      "scale": [
        1.0,
        0.9999994039535522,
        1.0
      ],
      "translation": [
        3.149611234664917,
        -1.6310991668433417e-07,
        -4.371344402898103e-06
      ]
    },
    {
      "name": "EndLFeelerA3_05",
      "rotation": [
        1.0704288122553862e-08,
        -8.938641826716776e-09,
        -8.18657750097096e-14,
        1.0
      ],
      "scale": [
        1.0,
        0.9999992847442627,
        0.9999998807907104
      ],
      "translation": [
        4.156571388244629,
        7.090092708494922e-07,
        -4.615209263647557e-07
      ]
    },
    {
      "children": [
        25,
        26
      ],
      "name": "HeadB_015",
      "rotation": [
        -1.3682871440323652e-06,
        -0.7071068286895752,
        -1.3682871440323652e-06,
        0.7071068286895752
      ],
      "translation": [
        5.247910976409912,
        7.316308975219727,
        5.439420223236084
      ]
    },
    {
      "name": "EndHeadB_010",
      "rotation": [
        1.3850922186975367e-08,
        1.1846453208239156e-21,
        -8.503278376564838e-14,
        1.0
      ],
      "scale": [
        1.0,
        1.0,
        0.9999998807907104
      ],
      "translation": [
        6.8696980476379395,
        4.76837158203125e-07,
        6.333549436021713e-07
      ]
    },
    {
      "children": [
        27
      ],
      "name": "RFeelerA1_014",
      "rotation": [
        1.3850922186975367e-08,
        1.1846453208239156e-21,
        -8.503278376564838e-14,
        1.0
      ],
      "scale": [
        1.0,
        1.0,
        0.9999998807907104
      ],
      "translation": [
        3.4239003658294678,
        2.002716064453125e-05,
        -5.34299898147583
      ]
    },
    {
      "children": [
        28
      ],
      "name": "RFeelerA2_013",
      "rotation": [
        2.7703233484999146e-08,
        -7.946606039865856e-09,
        -8.534808330993432e-14,
        1.0
      ],
      "scale": [
        1.0,
        1.0,
        0.9999997615814209
      ],
      "translation": [
        3.006000280380249,
        -9.537222922517685e-07,
        2.149208057744545e-06
      ]
    },
    {
      "children": [
        29
      ],
      "name": "RFeelerA3_012",
      "rotation": [
        2.6654364049250034e-08,
        -9.920548826869435e-10,
        -8.607722282345798e-14,
        1.0
      ],
      "scale": [
        1.0,
        1.0,
        0.9999997615814209
      ],
      "translation": [
        3.1495978832244873,
        -4.769332235809998e-07,
        -6.617505050598993e-07
      ]
    },
    {
      "name": "EndRFeelerA3_011",
      "rotation": [
        2.5605494613500923e-08,
        -8.938641826716776e-09,
        -8.285751506567282e-14,
        1.0
      ],
      "scale": [
        1.0,
        0.9999998807907104,
        0.9999997615814209
      ],
      "translation": [
        4.156498908996582,
        -4.769812562699371e-07,
        1.3099728448651149e-06
      ]
    },
    {
      "children": [
        31
      ],
      "name": "HeadC_017",
      "rotation": [
        -9.793438948690891e-09,
        -0.7071068286895752,
        -9.793438948690891e-09,
        0.7071068286895752
      ],
      "translation": [
        -7.000451564788818,
        1.1773925052693812e-06,
        5.441699504852295
      ]
    },
    {
      "name": "EndHeadC_016",
      "rotation": [
        1.3850012692273594e-08,
        -2.185570480151e-08,
        -3.4396239806719743e-15,
        1.0
      ],
      "scale": [
        0.9999998807907104,
        1.0,
        1.0
      ],
      "translation": [
        6.867476940155029,
        -2.859667797699972e-12,
        -5.228607165008725e-07
      ]
    },
    {
      "children": [
        33
      ],
      "name": "LFeeler_019",
      "rotation": [
        8.043401912864838e-19,
        3.463813190237638e-17,
        -0.7071068286895752,
        0.7071068286895752
      ],
      "translation": [
        5.9310736656188965,
        -16.81599998474121,
        -2.6566658561932854e-07
      ]
    },
    {
      "name": "EndLFeeler_018",
      "rotation": [
        1.490115053570662e-08,
        1.32871977309712e-10,
        3.142782034615266e-08,
        1.0
      ],
      "scale": [
        0.9999998807907104,
        1.0,
        1.0
      ],
      "translation": [
        26.887502670288086,
        -0.00010212936467723921,
        -2.7247999412338686e-08
      ]
    },
    {
      "children": [
        35
      ],
      "name": "LTailA_021",
      "rotation": [
        0.7071068286895752,
        1.368287257719203e-06,
        -0.7071068286895752,
        1.368287257719203e-06
      ],
      "translation": [
        5.247907638549805,
        -7.316309928894043,
        -5.252151012420654
      ]
    },
    {
      "name": "EndLTailA_020",
      "rotation": [
        1.4736248488134152e-07,
        -7.216388673691315e-14,
        1.9211993276258e-06,
        1.0
      ],
      "scale": [
        1.0,
        0.9999998807907104,
        0.9999998807907104
      ],
      "translation": [
        6.869729995727539,
        2.6693905965657905e-05,
        1.1621149269558373e-06
      ]
    },
    {
      "children": [
        37
      ],
      "name": "RFeeler_023",
      "rotation": [
        -7.990194036950247e-19,
        -3.463812197620903e-17,
        0.7071068286895752,
        0.7071068286895752
      ],
      "translation": [
        5.931108474731445,
        16.81599998474121,
        -4.318789706303505e-06
      ]
    },
    {
      "name": "EndRFeeler_022",
      "rotation": [
        -5.327971704709926e-16,
        7.318051054028274e-09,
        -3.8109753859316697e-06,
        1.0
      ],
      "scale": [
        0.9999998807907104,
        1.0,
        1.0
      ],
      "translation": [
        26.88749885559082,
        9.67618398135528e-05,
        -9.809444918573718e-07
      ]
    },
    {
      "children": [
        39
      ],
      "name": "RTailA_025",
      "rotation": [
        0.7071068286895752,
        -1.3487002661349834e-06,
        -0.7071068286895752,
        -1.3487002661349834e-06
      ],
      "translation": [
        5.247910022735596,
        7.316308975219727,
        -5.252151012420654
      ]
    },
    {
      "name": "EndRTailA_024",
      "rotation": [
        -1.3851456870384027e-08,
        2.39774237791035e-13,
        -1.9211993276258e-06,
        1.0
      ],
      "scale": [
        1.0,
        1.0,
        0.9999998807907104
      ],
      "translation": [
        6.869719505310059,
        -2.791850783978589e-05,
        -5.065714049123926e-06
      ]
    },
    {
      "children": [
        41
      ],
      "name": "Tail_027",
      "rotation": [
        0.7071068286895752,
        -1.3487002661349834e-06,
        -0.7071068286895752,
        -1.3487002661349834e-06
      ],
      "translation": [
        -6.98751163482666,
        1.17703280011483e-06,
        -5.0556111335754395
      ]
    },
    {
      "name": "EndTail_026",
      "rotation": [
        -1.3849409619126618e-08,
        -7.286848262375717e-14,
        -1.9211993276258e-06,
        1.0
      ],
      "scale": [
        1.0,
        1.0,
        0.9999998807907104
      ],
      "translation": [
        10.783599853515625,
        -4.144008198636584e-05,
        -4.0240841769900726e-08
      ]
    },
    {
      "children": [
        43
      ],
      "name": "VriVis00_031",
      "rotation": [
        -6.617444900424222e-24,
        -0.0,
        0.0,
        1.0
      ]
    },
    {
      "name": "pm0415_00_BodySkin_030"
    },
    {
      "name": "pm0415_00_WingSkin_032",
      "rotation": [
        -6.617444900424222e-24,
        -0.0,
        0.0,
        1.0
      ]
    }
  ],
  "samplers": [
    {
      "magFilter": 9729,
      "minFilter": 9987,
      "wrapS": 10497,
      "wrapT": 10497
    }
  ],
  "scene": 0,
  "scenes": [
    {
      "name": "Sketchfab_Scene",
      "nodes": [
        0
      ]
    }
  ],
  "skins": [
    {
      "inverseBindMatrices": 12,
      "joints": [
        4,
        11,
        12,
        13,
        14,
        15,
        16,
        17,
        18,
        19,
        20,
        21,
        22,
        23,
        24,
        25,
        26,
        27,
        28,
        29,
        30,
        31,
        32,
        33,
        34,
        35,
        36,
        37,
        38,
        39,
        40,
        41,
        42,
        43,
        44
      ],
      "skeleton": 4
    }
  ],
  "textures": [
    {
      "sampler": 0,
      "source": 0
    },
    {
      "sampler": 0,
      "source": 1
    },
    {
      "sampler": 0,
      "source": 2
    }
  ]
}
